<svg width="500" height="500" viewBox="0 0 500 500" fill="none" xmlns="http://www.w3.org/2000/svg">
<g clip-path="url(#clip0_102_2)">
<path d="M437.5 229.687V406.25C437.5 414.583 434.375 421.875 428.125 428.125C421.875 434.375 414.583 437.5 406.25 437.5H93.2292C84.8958 437.5 77.6042 434.375 71.3542 428.125C65.1042 421.875 61.9792 414.583 61.9792 406.25V229.687C52.2569 221.354 45.8333 211.111 42.7083 198.958C39.5833 186.806 39.9305 174.653 43.75 162.5L66.1458 92.1875C68.9236 82.8125 73.7847 75.5208 80.7292 70.3125C87.6736 65.1042 95.6597 62.5 104.687 62.5H392.708C402.431 62.5 410.938 65.191 418.229 70.5729C425.521 75.9549 430.556 83.1597 433.333 92.1875L456.25 162.5C460.069 174.653 460.33 186.806 457.031 198.958C453.733 211.111 447.222 221.354 437.5 229.687ZM296.875 213.542C306.944 213.542 315.451 210.243 322.396 203.646C329.34 197.049 332.118 189.063 330.729 179.688L317.708 93.75H265.625V179.688C265.625 188.715 268.576 196.615 274.479 203.385C280.382 210.156 287.847 213.542 296.875 213.542ZM199.479 213.542C209.201 213.542 217.448 210.243 224.219 203.646C230.99 197.049 234.375 189.063 234.375 179.688V93.75H182.292L169.271 179.688C167.882 188.715 170.313 196.615 176.563 203.385C182.813 210.156 190.451 213.542 199.479 213.542ZM104.687 213.542C113.021 213.542 120.226 210.677 126.302 204.948C132.378 199.219 135.937 192.188 136.979 183.854L150.521 93.75H98.4375L74.4792 169.792C71.0069 180.556 72.3958 190.538 78.6458 199.74C84.8958 208.941 93.5764 213.542 104.687 213.542ZM394.792 213.542C405.903 213.542 414.67 209.028 421.094 200C427.517 190.972 428.993 180.903 425.521 169.792L401.563 93.75H349.479L363.021 183.854C364.062 192.188 367.622 199.219 373.698 204.948C379.774 210.677 386.806 213.542 394.792 213.542ZM93.2292 406.25H406.25V244.271C406.597 244.618 405.469 244.792 402.865 244.792C400.26 244.792 397.569 244.792 394.792 244.792C386.111 244.792 377.865 242.969 370.052 239.323C362.24 235.677 354.514 230.035 346.875 222.396C341.319 229.34 334.375 234.809 326.042 238.802C317.708 242.795 308.507 244.792 298.438 244.792C288.021 244.792 279.08 243.316 271.615 240.365C264.149 237.413 256.944 232.465 250 225.521C244.792 231.771 238.194 236.545 230.208 239.844C222.222 243.142 213.194 244.792 203.125 244.792C192.361 244.792 182.812 242.882 174.479 239.063C166.146 235.243 159.028 229.688 153.125 222.396C144.792 229.688 136.632 235.243 128.646 239.063C120.66 242.882 112.674 244.792 104.687 244.792C102.257 244.792 99.9132 244.792 97.6562 244.792C95.3993 244.792 93.9236 244.618 93.2292 244.271V406.25ZM406.25 406.25H93.2292C93.9236 406.25 95.3993 406.25 97.6562 406.25C99.9132 406.25 102.257 406.25 104.687 406.25C110.59 406.25 117.622 406.25 125.781 406.25C133.941 406.25 143.056 406.25 153.125 406.25C156.25 406.25 159.722 406.25 163.542 406.25C167.361 406.25 171.441 406.25 175.781 406.25C180.122 406.25 184.549 406.25 189.062 406.25C193.576 406.25 198.264 406.25 203.125 406.25C206.944 406.25 210.938 406.25 215.104 406.25C219.271 406.25 223.438 406.25 227.604 406.25C231.771 406.25 235.764 406.25 239.583 406.25C243.403 406.25 246.875 406.25 250 406.25C257.639 406.25 265.278 406.25 272.917 406.25C280.556 406.25 289.063 406.25 298.438 406.25C303.299 406.25 308.073 406.25 312.76 406.25C317.448 406.25 321.875 406.25 326.042 406.25C330.208 406.25 334.028 406.25 337.5 406.25C340.972 406.25 344.097 406.25 346.875 406.25C354.861 406.25 362.847 406.25 370.833 406.25C378.819 406.25 386.806 406.25 394.792 406.25C397.569 406.25 400.26 406.25 402.865 406.25C405.469 406.25 406.597 406.25 406.25 406.25Z" fill="#4E91F9"/>
<path d="M254.1 412.1C228.7 412.1 207.7 406.2 191.1 394.4C174.7 382.4 165.8 364.9 164.4 341.9H235.2C236.2 354.1 241.6 360.2 251.4 360.2C255 360.2 258 359.4 260.4 357.8C263 356 264.3 353.3 264.3 349.7C264.3 344.7 261.6 340.7 256.2 337.7C250.8 334.5 242.4 330.9 231 326.9C217.4 322.1 206.1 317.4 197.1 312.8C188.3 308.2 180.7 301.5 174.3 292.7C167.9 283.9 164.8 272.6 165 258.8C165 245 168.5 233.3 175.5 223.7C182.7 213.9 192.4 206.5 204.6 201.5C217 196.5 230.9 194 246.3 194C272.3 194 292.9 200 308.1 212C323.5 224 331.6 240.9 332.4 262.7H260.7C260.5 256.7 259 252.4 256.2 249.8C253.4 247.2 250 245.9 246 245.9C243.2 245.9 240.9 246.9 239.1 248.9C237.3 250.7 236.4 253.3 236.4 256.7C236.4 261.5 239 265.5 244.2 268.7C249.6 271.7 258.1 275.4 269.7 279.8C283.1 284.8 294.1 289.6 302.7 294.2C311.5 298.8 319.1 305.2 325.5 313.4C331.9 321.6 335.1 331.9 335.1 344.3C335.1 357.3 331.9 369 325.5 379.4C319.1 389.6 309.8 397.6 297.6 403.4C285.4 409.2 270.9 412.1 254.1 412.1Z" fill="#4E91F9"/>
</g>
<defs>
<clipPath id="clip0_102_2">
<rect width="500" height="500" fill="white"/>
</clipPath>
</defs>
</svg>
